<svg version="1.1" viewBox="100 200.0 200.0 275.0" fill="none" stroke="none" stroke-linecap="square" stroke-miterlimit="10" xmlns:xlink="http://www.w3.org/1999/xlink" xmlns="http://www.w3.org/2000/svg"><clipPath id="p.0"><path d="m0 0l800.0 0l0 600.0l-800.0 0l0 -600.0z" clip-rule="nonzero"/></clipPath><g clip-path="url(#p.0)"><path fill="#000000" fill-opacity="0.0" d="m0 0l800.0 0l0 600.0l-800.0 0z" fill-rule="evenodd"/><path fill="#000000" fill-opacity="0.0" d="m80.154854 118.509186l134.26773 0l0 342.58267l-134.26773 0z" fill-rule="evenodd"/><path fill="#000000" d="m98.48298 354.7123l95.73438 -126.9375l0 -0.53125l-93.06251 0l0 -30.390625l136.53125 0l0 28.796875l-95.734375 126.921875l0 0.53125l95.734375 0l0 30.40625l-139.20312 0l0 -28.796875z" fill-rule="nonzero"/><path fill="#000000" fill-opacity="0.0" d="m170.69817 118.509186l274.96063 0l0 342.58267l-274.96063 0z" fill-rule="evenodd"/><path fill="#016975" d="m194.37004 352.8373l0 -125.328125l30.65625 -30.65625l92.79686 0l30.140625 30.125l0 28.53125l-36.265625 0l0 -15.1875l-12.53125 -12.546875l-54.937485 0l-13.59375 13.609375l0 97.59375l13.59375 13.59375l55.468735 0l13.0625 -13.0625l0 -29.0625l-40.0 0l0 -30.9375l75.203125 0l0 73.328125l-30.671875 30.671875l-92.26561 0l-30.65625 -30.671875z" fill-rule="nonzero"/></g></svg>